<?xml version="1.0" encoding="UTF-8"?>
<svg id="Layer_1" data-name="Layer 1" xmlns="http://www.w3.org/2000/svg" viewBox="0 0 550.38 352.22">
  <defs>
    <style>
      .cls-1 {
        fill: #f04e23;
      }
    </style>
  </defs>
  <path class="cls-1" d="M524.44,1.48l-99.77,41.89c-95.61,40.14-203.36,40.14-298.96,0L25.95,1.48C13.62-3.7,0,5.36,0,18.73v314.76c0,13.37,13.62,22.43,25.95,17.25l99.76-41.89c95.6-40.14,203.35-40.14,298.96,0l99.77,41.89c12.33,5.18,25.94-3.88,25.94-17.25V18.73c0-13.37-13.61-22.43-25.94-17.25ZM488.15,209.47c-15.29,27.37-47.64,40.14-77.93,32.06-3.94-1.06-7.82-2.33-11.61-3.82-2.63-1.03-5.16-2.29-7.64-3.65-34.06-18.63-71.92-29.19-110.77-29.19h-10.01c-38.86,0-76.73,10.56-110.79,29.19-2.48,1.36-5.01,2.62-7.64,3.65-3.79,1.5-7.67,2.77-11.62,3.82-30.29,8.07-62.63-4.69-77.92-32.06-6.03-10.81-9.24-23.42-8.6-36.83.45-9.54,2.88-18.59,6.88-26.75,14.27-29.08,47.47-43.38,78.87-35.4,4.61,1.17,9.14,2.64,13.56,4.43,2.65,1.07,5.2,2.38,7.69,3.8,33.5,19.11,71.78,28.39,110.43,28.39h8.28c38.63,0,76.91-9.28,110.42-28.39,2.48-1.42,5.03-2.74,7.69-3.81,4.42-1.78,8.96-3.26,13.57-4.43,31.4-7.96,64.6,6.33,78.86,35.41,4,8.16,6.43,17.21,6.89,26.75.63,13.41-2.57,26.02-8.61,36.83Z"/>
</svg>
